<?xml version="1.0" standalone="no"?>
<!DOCTYPE svg PUBLIC "-//W3C//DTD SVG 20010904//EN"
 "http://www.w3.org/TR/2001/REC-SVG-20010904/DTD/svg10.dtd">
<svg version="1.0" xmlns="http://www.w3.org/2000/svg"
 width="713.000000pt" height="713.000000pt" viewBox="0 0 713.000000 713.000000"
 preserveAspectRatio="xMidYMid meet">
<metadata>
Created by potrace 1.11, written by Peter Selinger 2001-2013
</metadata>
<g transform="translate(0.000000,713.000000) scale(0.100000,-0.100000)"
fill="#000000" stroke="none">
<path d="M3275 7029 c-171 -17 -207 -22 -315 -41 -63 -11 -128 -22 -145 -24
-86 -15 -317 -80 -470 -134 -381 -133 -735 -333 -1059 -595 -107 -86 -112 -90
-232 -206 -93 -89 -159 -159 -234 -249 -30 -36 -58 -67 -61 -70 -15 -13 -153
-205 -211 -295 -217 -333 -405 -786 -472 -1135 -3 -14 -12 -61 -21 -104 -8
-44 -18 -102 -21 -130 -3 -28 -7 -57 -9 -63 -11 -34 -20 -230 -20 -423 1 -221
8 -345 30 -482 4 -24 9 -56 11 -73 10 -72 51 -258 75 -340 279 -979 939 -1764
1859 -2212 333 -162 757 -290 1086 -328 32 -4 68 -9 79 -11 132 -25 707 -25
840 0 11 2 46 7 79 11 32 3 68 8 80 10 265 44 527 117 763 210 132 53 406 184
411 197 2 4 9 8 14 8 24 0 361 218 425 275 6 5 26 21 44 35 398 302 773 769
999 1244 120 254 233 601 275 851 18 105 25 159 42 305 15 134 7 623 -12 715
-2 11 -7 47 -10 80 -4 32 -8 62 -10 65 -2 3 -6 26 -10 50 -12 87 -74 329 -118
461 -88 266 -195 497 -340 729 -46 74 -88 140 -100 155 -4 6 -39 53 -78 105
-252 335 -564 624 -927 855 -144 92 -167 105 -337 189 -231 114 -446 195 -680
256 -136 35 -293 67 -365 75 -30 4 -61 8 -69 11 -7 2 -39 7 -70 9 -31 3 -94 9
-141 14 -101 10 -475 10 -575 0z"/>
</g>
</svg>
